<svg width="45" height="45" xmlns="http://www.w3.org/2000/svg" xmlns:xlink="http://www.w3.org/1999/xlink" overflow="hidden"><defs><clipPath id="clip0"><rect x="0" y="0" width="45" height="45"/></clipPath></defs><g clip-path="url(#clip0)"><path d="M22.5 0C17.6551 0 13.7133 3.94181 13.7133 8.78669L13.7133 23.719C13.7133 28.5638 17.6551 32.5056 22.5 32.5056 27.3449 32.5056 31.2867 28.541 31.2867 23.6682L31.2867 8.78669C31.2867 3.94181 27.3454 0 22.5 0ZM28.2393 23.6682C28.2393 26.8608 25.6647 29.4582 22.5 29.4582 19.3353 29.4582 16.7607 26.8832 16.7607 23.719L16.7607 8.78669C16.7607 5.62192 19.3353 3.04743 22.5 3.04743 25.6647 3.04743 28.2393 5.62201 28.2393 8.78669L28.2393 23.6682Z"/><path d="M20.9763 36.9243 24.0238 36.9243 24.0238 43.8318 20.9763 43.8318Z"/><path d="M28.798 41.9526 16.202 41.9526C15.3605 41.9526 14.6783 42.6347 14.6783 43.4762 14.6783 44.3178 15.3605 44.9999 16.202 44.9999L28.798 44.9999C29.6395 44.9999 30.3217 44.3178 30.3217 43.4762 30.3217 42.6347 29.6395 41.9526 28.798 41.9526Z"/><path d="M35.3499 16.202C34.5083 16.202 33.8262 16.8841 33.8262 17.7257L33.8262 23.719C33.8262 29.9641 28.7457 35.0452 22.5 35.0452 16.2543 35.0452 11.1738 29.9641 11.1738 23.719L11.1738 17.7257C11.1738 16.8841 10.4917 16.202 9.65013 16.202 8.80857 16.202 8.12646 16.8841 8.12646 17.7257L8.12646 23.719C8.12646 31.6448 14.5743 38.0925 22.5 38.0925 30.4257 38.0925 36.8735 31.6447 36.8735 23.719L36.8735 17.7257C36.8735 16.8841 36.1915 16.202 35.3499 16.202Z"/><path d="M41.0491 3.95095C40.4538 3.35566 39.4898 3.35566 38.8945 3.95095L3.95095 38.8945C3.35566 39.4893 3.35566 40.4543 3.95095 41.0491 4.24811 41.3467 4.63816 41.4955 5.02822 41.4955 5.41775 41.4955 5.80834 41.3467 6.1055 41.0491L41.0491 6.1055C41.6443 5.51074 41.6443 4.5457 41.0491 3.95095Z"/></g></svg>