<svg width="45" height="45" xmlns="http://www.w3.org/2000/svg" xmlns:xlink="http://www.w3.org/1999/xlink" overflow="hidden"><defs><clipPath id="clip0"><rect x="0" y="0" width="45" height="45"/></clipPath></defs><g clip-path="url(#clip0)"><path d="M29.2206 24.1772C29.2206 23.4363 28.6198 22.8354 27.8785 22.8354 27.1373 22.8354 26.5365 23.4363 26.5365 24.1772 26.5365 30.7416 21.1964 36.0815 14.6321 36.0815 8.0681 36.0815 2.72805 30.7416 2.72805 24.1772 2.72805 23.4363 2.12723 22.8354 1.38599 22.8354 0.644762 22.8354 0.0439454 23.4363 0.0439454 24.1772 0.0439454 31.7691 5.87289 38.0234 13.2901 38.7032L13.2901 42.316 8.3098 42.316C7.56857 42.316 6.96774 42.9168 6.96774 43.658 6.96774 44.3993 7.56857 45.0001 8.3098 45.0001L20.9547 45.0001C21.6957 45.0001 22.2965 44.3993 22.2965 43.658 22.2965 42.9168 21.6957 42.316 20.9547 42.316L15.9742 42.316 15.9742 38.7032C23.3917 38.0238 29.2206 31.7691 29.2206 24.1772Z" transform="matrix(-1 1.22465e-16 1.22465e-16 1 37.0459 -0.0878908)"/><path d="M14.6321 32.7703C19.3703 32.7703 23.2251 28.9154 23.2251 24.1772L23.2251 8.5927C23.2251 3.85484 19.3703 2.49801e-15 14.6321 2.49801e-15 9.89422 2.49801e-15 6.0394 3.85484 6.0394 8.5927L6.0394 24.1772C6.0394 28.9154 9.89422 32.7703 14.6321 32.7703ZM8.72316 8.5927C8.72316 5.33456 11.3739 2.68411 14.6321 2.68411 17.8903 2.68411 20.541 5.33456 20.541 8.5927L20.541 24.1772C20.541 27.4353 17.8903 30.0861 14.6321 30.0861 11.3739 30.0861 8.72316 27.4353 8.72316 24.1772Z" transform="matrix(-1 1.22465e-16 1.22465e-16 1 37.0459 -0.0878908)"/></g></svg>